<svg version="1.2" baseProfile="tiny-ps" xmlns="http://www.w3.org/2000/svg" viewBox="0 0 16 16" width="32" height="32">
	<title>seta-svg</title>
	<style>
		tspan { white-space:pre }
		.shp0 { fill: #03989e } 
	</style>
	<path id="Layer" class="shp0" d="M4.65 1.65C4.69 1.6 4.75 1.56 4.81 1.54C4.87 1.51 4.93 1.5 5 1.5C5.07 1.5 5.13 1.51 5.19 1.54C5.25 1.56 5.31 1.6 5.35 1.65L11.35 7.65C11.4 7.69 11.44 7.75 11.46 7.81C11.49 7.87 11.5 7.93 11.5 8C11.5 8.07 11.49 8.13 11.46 8.19C11.44 8.25 11.4 8.31 11.35 8.35L5.35 14.35C5.26 14.45 5.13 14.5 5 14.5C4.87 14.5 4.74 14.45 4.65 14.35C4.55 14.26 4.5 14.13 4.5 14C4.5 13.87 4.55 13.74 4.65 13.65L10.29 8L4.65 2.35C4.6 2.31 4.56 2.25 4.54 2.19C4.51 2.13 4.5 2.07 4.5 2C4.5 1.93 4.51 1.87 4.54 1.81C4.56 1.75 4.6 1.69 4.65 1.65L4.65 1.65Z" />
</svg>