<svg version="1.2" baseProfile="tiny-ps" xmlns="http://www.w3.org/2000/svg" viewBox="0 0 16 16" width="32" height="32">
	<title>seta-svg</title>
	<style>
		tspan { white-space:pre }
		.shp0 { fill: #03989e } 
	</style>
	<path id="Layer" class="shp0" d="M11.35 1.65C11.4 1.69 11.44 1.75 11.46 1.81C11.49 1.87 11.5 1.93 11.5 2C11.5 2.07 11.49 2.13 11.46 2.19C11.44 2.25 11.4 2.31 11.35 2.35L5.71 8L11.35 13.65C11.45 13.74 11.5 13.87 11.5 14C11.5 14.13 11.45 14.26 11.35 14.35C11.26 14.45 11.13 14.5 11 14.5C10.87 14.5 10.74 14.45 10.65 14.35L4.65 8.35C4.6 8.31 4.56 8.25 4.54 8.19C4.51 8.13 4.5 8.07 4.5 8C4.5 7.93 4.51 7.87 4.54 7.81C4.56 7.75 4.6 7.69 4.65 7.65L10.65 1.65C10.69 1.6 10.75 1.56 10.81 1.54C10.87 1.51 10.93 1.5 11 1.5C11.07 1.5 11.13 1.51 11.19 1.54C11.25 1.56 11.31 1.6 11.35 1.65L11.35 1.65Z" />
</svg>